<?xml version="1.0" encoding="utf-8"?>
<!-- Svg Vector Icons : http://www.sfont.cn -->
<!DOCTYPE svg PUBLIC "-//W3C//DTD SVG 1.1//EN" "http://www.w3.org/Graphics/SVG/1.1/DTD/svg11.dtd">
<svg version="1.1" xmlns="http://www.w3.org/2000/svg" xmlns:xlink="http://www.w3.org/1999/xlink" x="0px" y="0px" viewBox="0 0 1000 1000" enable-background="new 0 0 1000 1000" xml:space="preserve">
<metadata> Svg Vector Icons : http://www.sfont.cn </metadata>
<g><path d="M297.6,507.7c63.2,0,114.1-50.9,114.1-114.1c0-63.2-50.9-114.1-114.1-114.1s-114.1,50.9-114.1,114.1C183.6,456.8,234.5,507.7,297.6,507.7z"/><path d="M363.2,540.2H232.6c-52.7,0-95.7,42.9-95.7,95.7v67.5h321.4v-67.5C458.9,583.1,416,540.2,363.2,540.2z"/><path d="M739.8,588.6h-211c-12.3,0-22.1,9.8-22.1,22.1c0,12.3,9.8,21.5,22.1,21.5h211c12.3,0,22.1-9.8,22.1-22.1C761.9,598.4,752.1,588.6,739.8,588.6z"/><path d="M813.4,480.1H528.8c-12.3,0-22.1,9.8-22.1,22.1c0,12.3,9.8,22.1,22.1,22.1h284.6c12.3,0,22.1-9.8,22.1-22.1C835.5,489.9,825.6,480.1,813.4,480.1z"/><path d="M528.8,371.5c-12.3,0-22.1,9.8-22.1,22.1s9.8,22.1,22.1,22.1h284.6c12.3,0,22.1-9.8,22.1-22.1s-9.8-22.1-22.1-22.1H528.8z"/><path d="M913.3,155.7H86.7c-42.3,0-76.7,33.7-76.7,76v536c0,42.3,34.3,76.7,76.7,76.7h826.7c42.3,0,76.7-34.3,76.7-76.7v-536C990,189.4,955.7,155.7,913.3,155.7z M907.2,761.6h-815V237.8h814.4v523.7H907.2z"/></g>
</svg>