<svg xmlns="http://www.w3.org/2000/svg" width="34" height="34" viewBox="0 0 34 34">
  <g fill="#FFF">
    <path d="M15.9514563,23.5877184 C16.3398058,23.9731386 16.8058253,24.0502226 17.2718447,23.9731386 L17.3495146,23.9731386 C17.4271845,23.9731386 17.5048544,23.9731386 17.5825243,23.8960545 L17.6601942,23.8960545 C17.815534,23.8189705 17.9708738,23.7418864 18.0485437,23.5877184 L26.592233,15.1084732 C27.1359223,14.5688849 27.1359223,13.6438763 26.592233,13.104288 C26.0485437,12.5646997 25.1165048,12.5646997 24.5728155,13.104288 L18.5145631,19.1168436 L18.5145631,1.38751284 C18.3592233,0.616672381 17.7378641,0 16.961165,0 C16.184466,0 15.5631068,0.616672381 15.5631068,1.38751284 L15.5631068,19.1939277 L9.42718444,13.104288 C8.88349512,12.5646997 7.95145627,12.5646997 7.40776699,13.104288 C6.86407767,13.6438763 6.86407767,14.5688849 7.40776699,15.1084732 L15.9514563,23.5877184 Z" transform="matrix(1 0 0 -1 0 24)"/>
    <path d="M32.6090909,20 C31.8363636,20 31.2181818,20.6120219 31.2181818,21.3770492 L31.2181818,29.7923497 C31.2181818,30.557377 30.6,31.1693989 29.8272727,31.1693989 L4.32727274,31.1693989 C3.55454547,31.1693989 2.93636365,30.557377 2.93636365,29.7923497 L2.93636365,21.3770492 C2.93636365,20.6120219 2.31818182,20 1.54545456,20 C0.772727297,20 0,20.6120219 0,21.3770492 L0,29.7923497 C0,32.0874317 1.93181818,34 4.25,34 L29.75,34 C32.0681818,34 34,32.0874317 34,29.7923497 L34,21.3770492 C34,20.6120219 33.3818182,20 32.6090909,20 Z"/>
  </g>
</svg>
