<svg xmlns="http://www.w3.org/2000/svg" width="18" height="17" viewBox="0 0 18 17">
  <g fill="#323666">
    <path d="M7.66311805 8.78494829C7.56646244 8.78494829 7.46868293 8.76022244 7.37933268 8.70796098 7.11128195 8.55117659 7.02193171 8.20670049 7.17927805 7.93921171L9.44225561 4.07692098C9.5979161 3.80887024 9.9423922 3.71895805 10.2110049 3.87630439 10.4790556 4.03308878 10.5684059 4.37756488 10.4110595 4.64505366L8.14808195 8.50734439C8.04412098 8.68604488 7.85642927 8.78494829 7.66311805 8.78494829zM5.46869854 9.10638439C5.30123707 9.10638439 5.13546146 9.03220683 5.02475707 8.89003317L3.24899122 6.61132098C3.08939707 6.40620878 3.09108293 6.11848976 3.25348683 5.91562537L5.02925268 3.68973659C5.22312585 3.44697366 5.57603122 3.40763707 5.81879415 3.60094829 6.06155707 3.79425951 6.10089366 4.14828878 5.90702049 4.39048976L4.40773463 6.27021659 5.9115161 8.19939512C6.10201756 8.44440585 6.05874732 8.79731122 5.81317463 8.98781268 5.71033756 9.06760976 5.58951805 9.10638439 5.46869854 9.10638439zM12.5459122 9.10638439C12.4234068 9.10638439 12.2997776 9.06648585 12.1963785 8.98387902 11.9530537 8.7905678 11.9137171 8.43710049 12.1070283 8.19433756L13.6063141 6.31404878 12.1030946 4.3854322C11.9125932 4.14042146 11.9558634 3.7875161 12.2014361 3.59701463 12.4464468 3.40538927 12.7987902 3.44978341 12.9898537 3.69479415L14.7650576 5.97294439C14.9246517 6.17805659 14.9229659 6.46521366 14.7611239 6.66864L12.98592 8.89509073C12.8746537 9.03389268 12.7111259 9.10638439 12.5459122 9.10638439z"/>
    <path d="M16.5183454 12.5764332L1.48165463 12.5764332C.669635122 12.5764332.0087804878 11.8852332.0087804878 11.0366868L.0087804878 1.54757854C.0087804878.697908293.669635122.00670829268 1.48165463.00670829268L16.5183454.00670829268C17.3303649.00670829268 17.9912195.697908293 17.9912195 1.54757854L17.9912195 11.0361249C17.9912195 11.8852332 17.3303649 12.5764332 16.5183454 12.5764332zM1.48165463 1.13061073C1.28890537 1.13061073 1.13268293 1.31774049 1.13268293 1.54757854L1.13268293 11.0361249C1.13268293 11.265401 1.28890537 11.4519688 1.48165463 11.4519688L16.5183454 11.4519688C16.7110946 11.4519688 16.8673171 11.265401 16.8673171 11.0361249L16.8673171 1.54757854C16.8673171 1.31774049 16.7110946 1.13061073 16.5183454 1.13061073L1.48165463 1.13061073zM12.5003941 16.1054868L5.5001678 16.1054868C5.18940878 16.1054868 4.93821659 15.8537327 4.93821659 15.5435356 4.93821659 15.2333385 5.18940878 14.9815844 5.5001678 14.9815844L12.4998322 14.9815844C12.8105912 14.9815844 13.0617834 15.2333385 13.0617834 15.5435356 13.0617834 15.8537327 12.8105912 16.1054868 12.5003941 16.1054868z"/>
  </g>
</svg>
