<svg xmlns="http://www.w3.org/2000/svg" width="20" height="20" viewBox="0 0 20 20">
  <g fill="none" fill-rule="evenodd" transform="translate(-.06)">
    <rect width="20" height="20" fill="#94C2F8" rx="4"/>
    <g transform="translate(3 3)">
      <rect width="14" height="14" fill="#FFF" rx="2"/>
      <rect width="2" height="2" x="3" y="8" fill="#94C2F8" rx="1"/>
      <path fill="#FFF" fill-rule="nonzero" d="M11.8592047,0.00812280702 L2.12624772,0.00812280702 C0.955303781,0.0138421053 0.00768448501,0.924666667 0.00173402868,2.04959649 L0.00173402868,10.9432982 C0.00768448501,12.0687544 0.955322034,12.9795614 2.12571838,12.9852807 L11.8591864,12.9852807 C13.0301304,12.9795614 13.9777497,12.0687368 13.9837001,10.943807 L13.9837001,2.05010526 C13.9837001,0.930087719 13.0926832,0.00812280702 11.8591864,0.00812280702 L11.8592047,0.00812280702 Z M12.9555671,11.0095439 C12.9555671,11.6023333 12.4759531,12.0633158 11.8592047,12.0633158 L2.12624772,12.0633158 C2.12204954,12.0633684 2.11708475,12.0634035 2.11210169,12.0634035 C1.51435463,12.0634035 1.029794,11.5976667 1.029794,11.0231404 C1.029794,11.0183509 1.02983051,11.0135789 1.02988527,11.008807 L1.02988527,2.05010526 C1.02988527,1.45731579 1.50949935,0.996333333 2.12624772,0.996333333 L11.8592047,0.996333333 C12.4759531,0.996333333 12.9555671,1.45731579 12.9555671,2.05010526 L12.9555671,11.0095439 L12.9555671,11.0095439 Z"/>
      <path fill="#94C2F8" d="M11.5784414 4L7.42155859 4C7.1205347 4 7 4.19736842 7 4.46098246 7 4.79015789 7.1804892 4.92196491 7.42155859 4.92196491L11.5784414 4.92196491C11.8794653 4.92196491 12 4.72459649 12 4.46098246 12 4.19736842 11.8195108 4 11.5784414 4zM3.4999045 8C2.65227961 8 2 8.65227583 2 9.49989582 2 10.3475158 2.65227961 10.9997916 3.4999045 10.9997916 3.50712793 10.9999132 3.51565367 11 3.52417941 11 4.33924675 11 5 10.3392679 5 9.52418795 5 9.5156449 4.99993054 9.50713657 4.99977427 9.49862825 4.99979163 8.58672702 4.28262266 8.00001736 3.49988713 8.00001736L3.4999045 8zM11.5783386 9.00014035L7.42154912 9.00014035C7.12053199 9.00014035 7 9.19750877 7 9.46112281 7 9.72473684 7.18048514 9.92210526 7.42154912 9.92210526L11.5783386 9.92210526C11.8793557 9.92210526 11.9998877 9.72473684 11.9998877 9.46112281 11.9999679 9.45785965 12 9.45403509 12 9.45017544 12 9.20154386 11.8156966 9 11.5883334 9 11.584804 9 11.5813066 9.00005263 11.5778092 9.00015789L11.5783386 9.00014035z"/>
    </g>
    <polyline stroke="#94C2F8" points="5.623 6.566 6.391 8 8.623 6"/>
  </g>
</svg>
