<?xml version="1.0" encoding="UTF-8"?>
<svg width="18px" height="18px" viewBox="0 0 18 18" version="1.1" xmlns="http://www.w3.org/2000/svg" xmlns:xlink="http://www.w3.org/1999/xlink">
    <!-- Generator: Sketch 49.3 (51167) - http://www.bohemiancoding.com/sketch -->
    <title>修改</title>
    <desc>Created with Sketch.</desc>
    <defs></defs>
    <g id="Page-1" stroke="none" stroke-width="1" fill="none" fill-rule="evenodd">
        <g id="流水线-列表" transform="translate(-1197.000000, -187.000000)" fill="#526FDB" fill-rule="nonzero">
            <g id="Group-3" transform="translate(205.000000, 116.000000)">
                <g id="操作" transform="translate(970.000000, 71.000000)">
                    <g id="修改">
                        <g transform="translate(22.000000, 0.000000)">
                            <path d="M1.55630802,11.4794955 L12.5834346,0.452613377 C13.1892201,-0.153559958 13.968679,-0.148188254 14.5690969,0.45264943 L17.5476985,3.43116904 C18.1480804,4.03204277 18.153448,4.81068746 17.5476985,5.41682474 L6.52060798,16.4437069 L1.02901956,17.9637548 C0.267284625,18.1262399 -0.12613735,17.7331321 0.0361523641,16.970927 L1.55630802,11.4794955 Z M2.65479863,12.3666558 L1.53426112,16.4656984 L5.63336418,15.3451754 L2.65479863,12.3666558 Z M16.0584157,4.92035675 C16.5732037,4.40939596 16.5418265,4.41790416 16.0584517,3.9275289 L14.0727173,1.9418732 C13.6020231,1.43967298 13.5549753,1.43549098 13.0798501,1.9418732 L11.0941157,3.9275289 L14.0727173,6.90604851 L16.0584157,4.92035675 Z M6.62626741,14.3523476 L13.0798502,7.89887638 L10.1012846,4.92039281 L3.64766581,11.3738279 C3.93632895,11.6628905 5.60695833,13.332517 6.62626741,14.3523476 Z" id="Shape"></path>
                        </g>
                    </g>
                </g>
            </g>
        </g>
    </g>
</svg>