<svg xmlns="http://www.w3.org/2000/svg" width="16" height="15" viewBox="0 0 16 15">
  <path fill="#999" d="M11.590418,0 C10.0036971,0 8.61662988,0.933936652 7.891572,2.30226244 C7.17702221,0.933936652 5.77944687,0 4.18221792,0 C1.87043917,0 0,1.9438914 0,4.3438914 C0,5.4841629 0.420323409,6.5158371 1.11385703,7.29773756 L7.5342971,13.9656109 C7.63937795,14.0633484 7.76547498,14.1176471 7.891572,14.1176471 C8.01766902,14.1176471 8.14376605,14.0633484 8.2488469,13.9656109 L14.669287,7.29773756 C15.3523125,6.52669683 15.7726359,5.4841629 15.7726359,4.3438914 C15.7726359,1.9438914 13.9021967,0 11.590418,0 Z M13.8706725,6.5918552 L7.891572,12.8687783 L1.91247151,6.5918552 C1.37655916,6.00542986 1.05080852,5.21266968 1.05080852,4.3438914 C1.05080852,2.54117647 2.45889194,1.08597285 4.18221792,1.08597285 C5.57979325,1.08597285 6.78822305,2.04162896 7.20854646,3.35565611 C7.31362731,3.63800905 7.58683753,3.84434389 7.891572,3.84434389 C8.20681456,3.84434389 8.46951669,3.64886878 8.58510562,3.36651584 C8.99492095,2.04162896 10.1928427,1.08597285 11.590418,1.08597285 C13.3242521,1.08597285 14.7218274,2.54117647 14.7218274,4.3438914 C14.7323355,5.21266968 14.4065848,6.00542986 13.8706725,6.5918552 Z"/>
</svg>
