<svg xmlns="http://www.w3.org/2000/svg" width="17" height="17" viewBox="0 0 17 17">
  <path fill="#526FDB" d="M9.70000101,12.7440853 L9.70000101,6.06793274 C9.70000101,5.28950453 10.9152536,5.28950453 10.9152536,6.06793274 L10.9152536,12.7428951 C10.9164439,13.5213233 9.70000101,13.5213233 9.70000101,12.7440853 Z M6.05424322,12.7440853 L6.05424322,6.06793274 C6.05424322,5.28950453 7.26949582,5.28950453 7.26949582,6.06793274 L7.26949582,12.7428951 C7.26949582,13.5213233 6.05424322,13.5213233 6.05424322,12.7440853 Z M16.3868659,3.03396715 L13.3481393,3.03396715 L13.3481393,1.81990481 C13.3481393,0.81413748 12.5304326,1.55863919e-06 11.5425191,1.55863919e-06 L5.44602179,1.55863919e-06 C4.96283161,-0.000630165988 4.49919803,0.190792192 4.15719599,0.532124515 C3.81519395,0.873456837 3.62286317,1.33671432 3.62254777,1.81990481 L3.62254777,3.03396715 L0.583821154,3.03396715 C-0.194607051,3.03396715 -0.194607051,4.24683923 0.583821154,4.24683923 L16.3856757,4.24683923 C17.1652941,4.24683923 17.1652941,3.03396715 16.3868659,3.03396715 Z M4.83899062,1.81990481 C4.83899062,1.49734511 5.12346209,1.21287364 5.44602179,1.21287364 L11.5425191,1.21287364 C11.8650788,1.21287364 12.1316965,1.46044714 12.1316965,1.81990481 L12.1316965,3.03396715 L4.83899062,3.03396715 L4.83899062,1.81990481 Z M12.7399179,16.990923 L4.2307692,16.990923 C3.74778514,16.9912388 3.28445742,16.7996769 2.9427129,16.4583788 C2.60096838,16.1170807 2.40880101,15.6540038 2.40848543,15.1710198 L2.40848543,6.06793274 C2.40848543,5.70728481 2.6929569,5.46090157 3.0155166,5.46090157 C3.3380763,5.46090157 3.62373803,5.70728481 3.62373803,6.06793274 L3.62373803,15.1698295 C3.62373803,15.4923892 3.90939976,15.7768607 4.2307692,15.7768607 L12.7399179,15.7768607 C13.0716915,15.7681426 13.3387713,15.5015854 13.3481393,15.1698295 L13.3481393,6.08697685 C13.3481393,5.29069479 14.5633919,5.29069479 14.5633919,6.08697685 L14.5633919,15.1710198 C14.562078,16.1769744 13.7458732,16.9915809 12.7399179,16.990923 Z"/>
</svg>
