<svg xmlns="http://www.w3.org/2000/svg" width="22" height="18" viewBox="0 0 22 18">
  <path fill="#526FDB" d="M21.9386161,11.3156499 C21.7962054,10.9503979 21.3738839,10.764191 20.9957589,10.9026525 L19.4464286,11.4755968 C20.9073661,7.42440318 19.0609375,2.84562334 15.0022321,0.9 C12.8022321,-0.155172414 10.3198661,-0.279310345 8.01674107,0.54668435 C7.63861607,0.682758621 7.44464286,1.09098143 7.58459821,1.45862069 C7.72455357,1.82864721 8.14441964,2.01724138 8.52254464,1.87877984 C10.4450893,1.18885942 12.5174107,1.2938992 14.3564732,2.17480106 C17.7939732,3.82201592 19.3359375,7.73236074 18.0174107,11.1509284 L17.2881696,9.28169761 C17.1457589,8.91644562 16.7234375,8.73023873 16.3453125,8.86870027 C15.9671875,9.0071618 15.778125,9.41777188 15.9205357,9.78541114 L17.1997768,13.0607427 C17.2660714,13.2278515 17.39375,13.366313 17.5607143,13.4450928 C17.5680804,13.4498674 17.5754464,13.4522546 17.5852679,13.4546419 C17.7620536,13.5334218 17.9633929,13.5381963 18.1450893,13.4713528 L21.5138393,12.2275862 C21.8944196,12.0915119 22.0834821,11.6832891 21.9386161,11.3156499 Z M13.4725446,16.1188329 C11.55,16.8087533 9.47767857,16.7037135 7.63861607,15.8228117 C4.20111607,14.1755968 2.65915179,10.265252 3.97767857,6.84668435 L4.70691964,8.71591512 C4.84933036,9.08116711 5.27165179,9.26737401 5.64977679,9.12891247 C6.02790179,8.99045093 6.21696429,8.57984085 6.07455357,8.21220159 L4.7953125,4.93687003 C4.65290179,4.56923077 4.23058036,4.38541114 3.85245536,4.52387268 L0.483705357,5.76763926 C0.105580357,5.9061008 -0.0834821429,6.31671088 0.0589285714,6.68435013 C0.127678571,6.85862069 0.2578125,6.99230769 0.419866071,7.06870027 C0.594196429,7.15225464 0.805357143,7.16896552 1.00178571,7.09496021 L2.55111607,6.52201592 C1.09017857,10.5732095 2.93660714,15.1519894 6.99285714,17.0976127 C9.1953125,18.1527851 11.6752232,18.2769231 13.9783482,17.4509284 C14.3564732,17.3148541 14.5504464,16.9066313 14.4104911,16.538992 C14.2729911,16.1713528 13.853125,15.9851459 13.4725446,16.1188329 Z"/>
</svg>
