<svg xmlns="http://www.w3.org/2000/svg" width="35" height="32" viewBox="0 0 35 32">
  <g fill="#FFF">
    <path d="M34.9999598,10.2063705 C34.9999598,9.53041804 34.4776497,8.98246123 33.8333413,8.98246123 L33.7555453,8.98246123 C33.111237,8.98246123 32.5889269,9.53041804 32.5889269,10.2063705 L32.5889269,29.5446596 L2.41099271,29.5446596 L2.41099271,2.45280588 L18.9677966,2.45280588 C19.6282187,2.45280588 20.1635484,1.92144638 20.1635484,1.26597488 L20.1635484,1.186831 C20.1635484,0.531359507 19.6282187,0 18.9677966,0 L1.19751985,3.99490376e-08 C0.54834923,3.99490376e-08 0.0204134295,0.513576712 0.00265212796,1.15363639 C0.00104478244,1.17979965 0,1.20608556 0,1.23265762 L0,30.7735971 C0,31.4508985 0.522350263,32 1.16661846,32 L1.24441446,32 C1.26864536,32 1.29259493,31.998978 1.31642399,31.9974246 L33.7998682,31.9974246 C34.456513,31.9974246 34.9893111,31.4720336 34.9953387,30.821713 C34.9981917,30.7865561 35,30.7510313 35,30.7151386 L35,10.2063705 L34.9999598,10.2063705 Z"/>
    <path d="M10.3320824,21.6129121 L10.3867292,21.6676103 C10.8393117,22.1206181 11.5845282,22.1091511 12.0512415,21.6419592 L29.6423253,4.0531643 C30.1090386,3.58601244 30.1204949,2.84009575 29.6679523,2.38708789 L29.6133054,2.33238974 C29.1607229,1.87938187 28.4155064,1.89084891 27.9487931,2.35804075 L10.3576694,19.9467957 C9.89095609,20.4139876 9.87949981,21.1599042 10.3320824,21.6129121 Z"/>
  </g>
</svg>
