<svg xmlns="http://www.w3.org/2000/svg" width="17" height="17" viewBox="0 0 17 17">
  <g fill="#526FDB">
    <path d="M12.5975937,4.4 L12.6,4.40240625 L12.6,15.5975937 L12.5975937,15.6 L1.40240625,15.6 L1.4,15.5975937 L1.4,4.40240625 L1.40240625,4.4 L12.5975937,4.4 Z M12.6,3 L1.4,3 C0.627748757,3.00228247 0.00228247175,3.62774876 0,4.4 L0,15.6 C0.00228247175,16.3722512 0.627748757,16.9977175 1.4,17 L12.6,17 C13.3722512,16.9977175 13.9977175,16.3722512 14,15.6 L14,4.4 C13.9977175,3.62774876 13.3722512,3.00228247 12.6,3 Z"/>
    <path d="M12,7 L3,7 L3,8.25 L12,8.25 L12,7 Z M12,10.75 L3,10.75 L3,12 L12,12 L12,10.75 Z"/>
    <path d="M15.6,3.10862447e-16 L4.4,3.10862447e-16 C3.62774876,0.00228247175 3.00228247,0.627748757 3,1.4 L3,2.1 L4.4,2.1 L4.4,1.40240625 L4.40240625,1.4 L15.5975937,1.4 L15.6,1.40240625 L15.6,12.5975937 L15.5975937,12.6 L14.9,12.6 L14.9,14 L15.6,14 C16.3722512,13.9977175 16.9977175,13.3722512 17,12.6 L17,1.4 C16.9977175,0.627748757 16.3722512,0.00228247175 15.6,0 Z"/>
  </g>
</svg>
