<svg xmlns="http://www.w3.org/2000/svg" width="18" height="18" viewBox="0 0 18 18">
  <path fill="#323666" d="M16.8724902,2.6737344 L12.2367916,2.6737344 L12.2367916,1.68355967 C12.2367916,1.23705188 12.0594171,0.808831893 11.7436884,0.49310321 C11.4279597,0.177374527 10.9997397,-3.69237863e-16 10.5532319,0 L7.18348614,0 C6.25371996,0 5.49992647,0.772178697 5.49992647,1.68355967 L5.49992647,2.6737344 L1.12687365,2.6737344 C0.512282452,2.6737344 0.0053760278,3.18326727 0.0053760278,3.97908409 L0.0053760278,16.1448382 C0.0053760278,16.5755774 0.514908901,17.0824838 1.12687365,17.0824838 L16.8724902,17.0824838 C17.4870814,17.0824838 17.9939879,16.5729509 17.9939879,16.1448382 L17.9939879,3.97908409 C17.9966143,3.20165248 17.4870814,2.6737344 16.8724902,2.6737344 L16.8724902,2.6737344 Z M6.54788327,1.41303448 C6.54788327,1.11624471 6.81052908,0.850972437 7.10994532,0.850972437 L10.6293992,0.850972437 C10.9350736,0.847604885 11.1861371,1.09162917 11.1914613,1.39727574 L11.1914613,2.67110793 L6.54788327,2.67110793 L6.54788327,1.41303448 Z M0.903624723,3.57198308 L17.0957392,3.57198308 L17.0957392,8.45982168 L10.5532319,8.45982168 L10.5532319,7.8820009 C10.5532319,7.2674097 10.0279403,6.88919972 9.43173432,6.88919972 L8.3102367,6.88919972 C7.67988674,6.88919972 7.18873907,7.2674097 7.18873906,7.8820009 L7.18873906,8.45982168 L0.903624723,8.45982168 L0.903624723,3.57198308 Z M9.57881597,10.7816107 L8.15790211,10.7816107 L8.15790211,7.73229278 L9.57881597,7.73229278 L9.57881597,10.7816107 Z M0.903624723,16.1868616 L0.903624723,9.51040495 L7.18348614,9.51040495 L7.18348614,10.6319026 C7.17560676,11.2438673 7.66675445,11.6404625 8.2787192,11.6483419 L9.42648141,11.6483419 C10.0226874,11.6483419 10.547979,11.2438673 10.547979,10.6319026 L10.547979,9.51040495 L17.0931127,9.51040495 L17.0931127,16.1868616 L0.903624723,16.1868616 Z"/>
</svg>
