<svg xmlns="http://www.w3.org/2000/svg" width="26" height="23" viewBox="0 0 26 23">
  <g fill="#FFF" fill-rule="evenodd">
    <path fill-rule="nonzero" d="M11.6630827 16C11.5489353 16 11.4334607 15.9652875 11.3279408 15.891918 11.0113811 15.6718093 10.9058612 15.1882013 11.0916824 14.8126753L13.7641898 9.39042793C13.9480201 9.01411307 14.3548358 8.88788586 14.6720592 9.10878347 14.9886189 9.32889216 15.0941388 9.81250015 14.9083176 10.1880261L12.2358102 15.6102735C12.1130355 15.8611501 11.8913773 16 11.6630827 16zM8.22547663 17C7.99447054 17 7.76579002 16.8945609 7.61307794 16.6924693L5.16348316 13.453412C4.94332971 13.1618569 4.94565527 12.752881 5.16968467 12.4645211L7.61927945 9.30054923C7.88671938 8.9554758 8.37353758 8.89956113 8.7084189 9.17434182 9.04330021 9.44912251 9.09756338 9.95235458 8.83012345 10.2966292L6.76192127 12.9685519 8.83632495 15.7107673C9.09911376 16.0590359 9.03942427 16.5606704 8.70066701 16.8314572 8.55880757 16.9448841 8.3921421 17 8.22547663 17zM17.7746801 17C17.6056616 17 17.4350925 16.9432911 17.2924346 16.8258797 16.9567236 16.5511211 16.9024516 16.0487282 17.1691597 15.7036825L19.237698 13.0311757 17.1637325 10.2899793C16.900901 9.9417387 16.9606001 9.44014449 17.2994125 9.16937946 17.6374495 8.89701699 18.1235715 8.96011563 18.3871783 9.3083562L20.836396 12.5463545C21.0565852 12.8378862 21.0542593 13.2460305 20.8309688 13.5351661L18.3817511 16.6996824C18.2282389 16.8969655 18.0026225 17 17.7746801 17z"/>
    <path fill-rule="nonzero" d="M23.8704375,23 L2.1295625,23 C0.9555,23 0,21.7352468 0,20.1825823 L0,2.81947425 C0,1.26475322 0.9555,0 2.1295625,0 L23.8704375,0 C25.0445,0 26,1.26475322 26,2.81947425 L26,20.181554 C26,21.7352468 25.0445,23 23.8704375,23 Z M2.1295625,1.61476014 C1.84181073,1.61476014 1.60858918,1.95923665 1.60858918,2.38233242 L1.60858918,20.6540837 C1.60858918,21.076145 1.84181073,21.4195871 2.1295625,21.4195871 L23.9929083,21.4195871 C24.2806601,21.4195871 24.5138816,21.076145 24.5138816,20.6540837 L24.5138816,2.38233242 C24.5138816,1.95923665 24.2806601,1.61476014 23.9929083,1.61476014 L2.1295625,1.61476014 Z"/>
    <rect width="26" height="1.718" y="4"/>
  </g>
</svg>
