<svg xmlns="http://www.w3.org/2000/svg" width="26" height="23" viewBox="0 0 26 23">
  <g fill="#FFF">
    <path d="M.764727386 17C.305839312 17 0 16.6909099 0 16.2272965L0 .772790539C0 .309090141.305882342 3.36280613e-8.764727386 0L25.2352726 0C25.6941177 0 26 .309090107 26 .772790539L26 16.227253C26 16.6909099 25.6941177 17 25.2352726 17L.764727386 17zM1.58049441 15.5359895L24.4429121 15.5359895 24.4429121 1.70448424 1.58049441 1.70448424 1.58049441 15.5359895zM15.1176719 23C14.5882353 23 14.2352941 22.7 14.2352941 22.2499789L14.2352941 17.7499367C14.2352941 17.3000422 14.5882353 17 15.1176719 17 15.6471085 17 16 17.3 16 17.7499367L16 22.2499367C16 22.6999578 15.6471085 23 15.1176719 23zM10.8822288 23C10.3529909 23 10 22.7 10 22.2499789L10 17.7499367C10 17.3000422 10.3529908 17 10.8822288 17 11.4117151 17 11.7646562 17.3 11.7646562 17.7499367L11.7646562 22.2499367C11.7646562 22.6999578 11.3234425 23 10.8822288 23z"/>
    <path d="M20.200063 23L5.79998198 23C5.31995677 23 5 22.5999888 5 21.9999437 5 21.399955 5.31995677 21 5.79998198 21L20.200063 21C20.6799982 21 21 21.399955 21 21.9999437 20.999955 22.5999325 20.600009 23 20.200063 23zM5.08223283 9.76989907C5.81951547 9.76989907 6.46520673 10.1602922 6.83529133 10.747557L9.06623463 9.45213329C8.92157579 9.16531502 8.83342608 8.84527788 8.83342608 8.4999148 8.83342608 8.28685952 8.8727271 8.08629685 8.93112355 7.89186689L6.61047622 6.54448543C6.22967822 6.96383862 5.68912273 7.23061198 5.08284343 7.23061198 3.93345522 7.23061198 3.00000056 6.28327699 3.00000056 5.11539117 3.00000056 3.94739177 3.93345522 3 5.08284343 3 6.23361939 3 7.16568631 3.94739177 7.16568631 5.11539117 7.16568631 5.32844644 7.12588572 5.52963373 7.06887705 5.72343908L9.3895799 7.07008234C9.77015584 6.65078594 10.3106559 6.38463725 10.91638 6.3846372 12.067267 6.3846372 13 7.33134757 13 8.49997158 13 9.6685956 12.067267 10.615306 10.9169351 10.615306 10.4417702 10.615306 10.009348 10.4471104 9.65896946 10.176135L9.66696289 10.1905583 7.14348238 11.6557107C7.15303009 11.7308933 7.16568635 11.8053377 7.16568631 11.8860284 7.16568631 13.0519836 6.23361939 14 5.08284343 14 3.93345522 14 3.00000056 13.0520404 3.00000056 11.8860284 2.99916791 10.7166662 3.93267808 9.76989907 5.08223283 9.76989907zM5.08223283 3.84535011C4.39230016 3.84535011 3.831428 4.41415997 3.831428 5.1145394 3.831428 5.81582738 4.39230016 6.3839558 5.08223283 6.3839558 5.77344226 6.3839558 6.33264907 5.81582734 6.33264907 5.1145394 6.33264907 4.41415997 5.77344222 3.84535011 5.08223283 3.84535011zM10.9163245 9.76989907C11.6068677 9.76989907 12.1657416 9.2018274 12.1657415 8.4999148 12.1657415 7.79862681 11.6061461 7.23055519 10.9163245 7.23055519 10.2257812 7.23055519 9.66657434 7.79862686 9.66657434 8.4999148 9.66651883 9.2018274 10.2257812 9.76989907 10.9163245 9.76989907zM5.08223283 13.155388C5.77344226 13.155388 6.33264907 12.58584 6.33264907 11.8868234 6.33264907 11.1834344 5.77344222 10.615306 5.08223283 10.615306 4.39230016 10.615306 3.831428 11.1834344 3.831428 11.8868234 3.831428 12.5857832 4.39230016 13.155388 5.08223283 13.155388zM23 6.49006392C23 6.76070792 22.7669033 6.98017132 22.4792864 6.98017132L17.3170139 6.98017132C17.0294894 6.98017132 16.796254 6.76070792 16.796254 6.49006392 16.796254 6.2194634 17.0294894 6 17.3170139 6L22.4792864 6C22.7669033 6 23 6.2194634 23 6.49006392zM23 8.99995651C23 9.270644 22.7669033 9.49006392 22.4792864 9.49006392L16.390772 9.49006392C16.1032475 9.49006392 15.8700584 9.27068749 15.8700584 8.99995651 15.8700584 8.72922554 16.1032475 8.5098926 16.390772 8.5098926L22.4792864 8.5098926C22.7669033 8.50993608 23 8.72926903 23 8.99995651zM23 11.5098926C23 11.7805366 22.7669033 12 22.4792864 12L15.5207136 12C15.2331891 12 15 11.7805366 15 11.5098926 15 11.2392051 15.2331891 11.0197852 15.5207136 11.0197852L22.4792864 11.0197852C22.7669033 11.0197852 23 11.2392051 23 11.5098926z"/>
  </g>
</svg>
