<svg xmlns="http://www.w3.org/2000/svg" width="35" height="35" viewBox="0 0 35 35">
  <g fill="#FFF">
    <path d="M21.2488123,32.502216 L5.88960125,32.502216 C4.98963497,32.5021039 4.12660243,32.1443796 3.49049492,31.507794 C2.8543874,30.8712084 2.49735239,30.0079481 2.49798894,29.1080546 L2.49798894,5.89265092 C2.49731497,4.992681 2.85431544,4.12932643 3.49041078,3.49262067 C4.12650612,2.85591491 4.9895586,2.49804573 5.88960125,2.49778392 L29.1068754,2.49778392 C30.0076375,2.49550959 30.8718882,2.85359062 31.5070565,3.49223991 C32.1477822,4.13291399 32.4979232,4.98484118 32.4983466,5.89123975 L32.4455644,21.246391 L32.4455644,21.2504834 C32.4516858,21.9363979 33.0089333,22.489523 33.6949295,22.4906061 C34.3809258,22.4916892 34.9399174,21.9403265 34.948205,21.2544347 L34.9999994,5.89674334 L34.9999994,5.89265092 C35.0007111,4.32960512 34.3800588,2.8303732 33.2747293,1.7251328 C32.1693999,0.619892403 30.6700472,-0.000709949912 29.1068754,1.73940816e-06 L5.88960125,1.73940816e-06 C4.32660394,-0.00119904693 2.82732935,0.619359067 1.72245402,1.72480721 C0.617578691,2.83025536 -0.00213142465,4.32978053 5.50825637e-06,5.89265092 L5.50825637e-06,29.1080546 C-0.00194392375,30.6708272 0.617868366,32.1701924 1.72275388,33.2754919 C2.8276394,34.3807913 4.32684307,35.0012361 5.8897424,34.9999982 L21.2488123,34.9999982 C21.9386114,34.9999982 22.497804,34.4408506 22.497804,33.7511071 C22.497804,33.0613636 21.9386114,32.502216 21.2488123,32.502216 Z"/>
    <path d="M34.6309768,32.8883711 L29.8202825,28.165346 C32.1032383,25.0144625 31.5459504,20.6716764 28.538296,18.1751909 C25.5306417,15.6787054 21.0761672,15.8615079 18.2912124,18.5957101 C15.5062577,21.3299124 15.320062,25.7032095 17.8628875,28.6560529 C20.405713,31.6088963 24.8291101,32.1560283 28.0384806,29.9146767 L32.8491749,34.6377018 C33.3412059,35.1207661 34.1389458,35.1207661 34.6309767,34.6377018 C35.1230077,34.1546374 35.1230078,33.3714355 34.6309768,32.8883711 Z M23.6537332,28.814147 C21.2466825,28.8140898 19.1748704,27.144704 18.705331,24.8269166 C18.2357916,22.5091291 19.4992978,20.1884738 21.7231417,19.2841671 C23.9469856,18.3798604 26.5117978,19.1437634 27.8490458,21.1087048 C29.1862937,23.0736461 28.9235365,25.6923642 27.2214655,27.3633598 C26.277334,28.2953081 24.9926965,28.8177156 23.6538756,28.814147 L23.6537332,28.814147 Z M27.4372862,11.4878624 C28.133009,11.4878624 28.6970469,10.9306092 28.6971893,10.2475652 C28.6973316,9.56452115 28.1332937,9.00656909 27.4374286,9.00642934 L7.25990304,9 C6.56369995,9.00107958 5.9999206,9.55552288 6,10.2390393 C6,10.9222231 6.56389561,11.4807343 7.2597607,11.4807343 L27.4372862,11.4878624 Z M14.8262972,18.9095194 C15.2764172,18.9095194 15.6923453,18.6737595 15.9174053,18.291048 C16.1424653,17.9083366 16.1424653,17.4368166 15.9174053,17.0541052 C15.6923453,16.6713937 15.2764172,16.4356337 14.8262972,16.4356338 L7.2597607,16.4356338 C6.81007299,16.4356337 6.3945444,16.6711673 6.16970054,17.0535112 C5.94485668,17.435855 5.94485668,17.9069221 6.16970054,18.289266 C6.3945444,18.6716099 6.81007299,18.9071434 7.2597607,18.9071434 L14.8262972,18.9095194 Z M7.2604725,23.8572908 C6.56484381,23.8572908 6.00092534,24.4109325 6.00092534,25.0938842 C6.00092534,25.7768359 6.56484381,26.3304776 7.2604725,26.3304776 L12.3047827,26.3311764 C12.7576604,26.3359054 13.178213,26.1014116 13.4060538,25.7171243 C13.6338945,25.332837 13.6338945,24.8580062 13.4060538,24.4737189 C13.178213,24.0894316 12.7576604,23.8549378 12.3047827,23.8596668 L7.2604725,23.8572908 Z"/>
  </g>
</svg>
