<svg xmlns="http://www.w3.org/2000/svg" width="18" height="18" viewBox="0 0 18 18">
  <g fill="#323666">
    <path d="M17.5960201,0.0187140068 L0.397922352,0.0187140068 C0.188047251,0.0187140068 0.0131513432,0.237471438 0.0131513432,0.508730683 L0.0131513432,15.1742293 C0.0131513432,15.4425718 0.185132317,15.664246 0.397922352,15.664246 L17.598935,15.664246 C17.8088101,15.664246 17.983706,15.4454886 17.983706,15.1742293 L17.983706,0.508730683 C17.9778761,0.240388233 17.8088101,0.0187140335 17.5960201,0.0187140068 L17.5960201,0.0187140068 Z M17.0246934,14.7075468 L1.09167612,14.7075468 L1.09167612,1.06874971 L17.0217785,1.06874971 L17.0246934,14.7075468 L17.0246934,14.7075468 Z M14.1010168,17.3238858 C14.1010168,17.5863947 13.9319508,17.8022354 13.7249906,17.8022354 L4.33016537,17.8022354 C4.1232052,17.8022354 3.95413916,17.5893114 3.95413916,17.3238858 C3.95413916,17.0613768 4.1232052,16.8455362 4.33016537,16.8455362 L13.7220757,16.8455362 C13.9319508,16.8455362 14.1010168,17.0613768 14.1010168,17.3238858 L14.1010168,17.3238858 Z"/>
    <path d="M4.01535274,14.0221068 C3.71219983,14.0221068 3.46734557,13.7800153 3.46734557,13.4795884 L3.46734557,8.03982008 C3.46734557,7.73939319 3.71219983,7.49730164 4.01535274,7.49730164 C4.31850565,7.49730164 4.56335992,7.73939319 4.56335992,8.03982008 L4.56335992,13.4825051 C4.56335992,13.7800153 4.32142059,14.0221068 4.01535274,14.0221068 Z M7.31505555,14.0221068 C7.01190264,14.0221068 6.76704837,13.7800153 6.76704837,13.4795884 L6.76704837,5.88141338 C6.76704837,5.58098649 7.01190264,5.33889494 7.31505555,5.33889491 C7.61820846,5.33889489 7.86306272,5.58098647 7.86306272,5.88141338 L7.86306272,13.4825051 C7.86306272,13.7800153 7.61820846,14.0221068 7.31505555,14.0221068 Z M10.6060136,14.0221068 C10.3028607,14.0221068 10.0580064,13.7800153 10.0580064,13.4795884 L10.0580064,11.3007643 C10.0580064,11.0003374 10.3028607,10.7582459 10.6060136,10.7582459 C10.9091665,10.7582459 11.1540208,11.0003374 11.1540208,11.3007643 L11.1540208,13.4795884 C11.1540208,13.7800153 10.9091665,14.0221068 10.6060136,14.0221068 Z M13.8969716,14.0221068 C13.5938187,14.0221068 13.3489644,13.7800153 13.3489644,13.4795884 L13.3489644,2.6583871 C13.3489644,2.35796022 13.5938187,2.11586867 13.8969716,2.11586867 C14.2001245,2.11586867 14.4449788,2.35796022 14.4449788,2.6583871 L14.4449788,13.4825051 C14.4449788,13.7800153 14.1972096,14.0221068 13.8969716,14.0221068 Z"/>
  </g>
</svg>
