<svg xmlns="http://www.w3.org/2000/svg" width="20" height="20" viewBox="0 0 20 20">
  <g fill="none" fill-rule="evenodd">
    <rect width="20" height="20" fill="#F07584" rx="4"/>
    <path fill="#FFF" fill-rule="nonzero" d="M16.7804584,15.6996381 L16.5102533,15.4294331 L15.5375151,14.4566948 C15.8077201,14.0243667 15.9698432,13.4839566 15.9698432,12.9435464 C15.9698432,11.268275 14.6188179,9.9172497 12.9435464,9.9172497 C11.268275,9.9172497 9.9172497,11.268275 9.9172497,12.9435464 C9.9172497,14.6188179 11.268275,15.9698432 12.9435464,15.9698432 C13.4839566,15.9698432 14.0243667,15.8077201 14.4566948,15.5375151 L15.4834741,16.5642943 L15.6996381,16.7804584 C15.8617612,16.9425814 16.0238842,16.9966224 16.2400483,16.9966224 C16.6723764,16.9966224 16.9966224,16.6723764 16.9966224,16.2400483 C16.9966224,16.0238842 16.8885404,15.8077201 16.7804584,15.6996381 L16.7804584,15.6996381 Z M12.8895054,14.3486128 C12.0788902,14.3486128 11.4303981,13.7001206 11.4303981,12.8895054 C11.4303981,12.0788902 12.0788902,11.4303981 12.8895054,11.4303981 C13.7001206,11.4303981 14.3486128,12.0788902 14.3486128,12.8895054 C14.3486128,13.7001206 13.7001206,14.3486128 12.8895054,14.3486128 Z"/>
    <path fill="#FFF" fill-rule="nonzero" d="M9.272,13.248 C9.272,11.064 11.064,9.272 13.248,9.272 C14.984,9.272 16.44,10.336 17,11.848 L17,4.12 C17,3.504 16.496,3 15.88,3 L4.12,3 C3.504,3 3,3.504 3,4.12 L3,15.88 C3,16.496 3.504,17 4.12,17 L11.96,17 C10.392,16.44 9.272,14.984 9.272,13.248 Z M10.28,4.68 L14.76,4.68 C15.04,4.68 15.32,4.93 15.32,5.18 C15.32,5.43 15.04,5.68 14.76,5.68 L10.28,5.68 C10,5.68 9.72,5.43 9.72,5.18 C9.72,4.93 10,4.68 10.28,4.68 Z M10.28,7.256 L14.76,7.256 C15.04,7.256 15.32,7.506 15.32,7.756 C15.32,8.006 15.04,8.256 14.76,8.256 L10.28,8.256 C10,8.256 9.72,8.006 9.72,7.756 C9.72,7.506 10,7.256 10.28,7.256 Z M8.152,8.32 L8.096,8.376 L8.04,8.432 L7.984,8.488 L7.928,8.544 C7.872,8.6 7.76,8.6 7.648,8.6 C7.536,8.6 7.424,8.544 7.368,8.432 L7.2,8.264 L6.864,8.04 L6.584,7.76 L6.248,7.424 L5.632,8.04 L5.184,8.488 C5.072,8.6 4.96,8.656 4.848,8.712 C4.736,8.712 4.624,8.712 4.568,8.656 L4.512,8.6 L4.456,8.544 L4.4,8.488 L4.344,8.432 C4.288,8.376 4.288,8.32 4.288,8.32 L4.288,8.208 C4.288,8.152 4.344,8.096 4.344,8.096 L4.456,7.984 C4.456,7.984 4.512,7.928 4.624,7.872 L4.904,7.48 L5.24,7.144 L5.632,6.752 L5.184,6.304 C5.072,6.192 4.904,6.08 4.848,5.968 L4.568,5.688 L4.456,5.576 C4.4,5.52 4.344,5.408 4.344,5.352 C4.344,5.296 4.344,5.184 4.4,5.128 C4.4,5.072 4.456,5.072 4.512,5.016 C4.568,4.96 4.568,4.96 4.624,4.96 C4.736,4.904 4.792,4.848 4.848,4.904 C4.904,4.904 5.016,4.96 5.072,5.016 L5.24,5.128 L5.52,5.408 L5.856,5.744 L6.248,6.136 L6.584,5.8 L6.92,5.464 L7.2,5.184 C7.256,5.128 7.368,5.016 7.424,5.016 C7.48,4.96 7.592,4.904 7.648,4.848 C7.76,4.848 7.816,4.848 7.872,4.904 L7.928,4.904 C7.928,4.904 7.984,4.904 7.984,4.96 L8.04,5.016 L8.096,5.016 C8.152,5.072 8.208,5.184 8.208,5.296 C8.208,5.408 8.096,5.52 8.04,5.576 L7.816,5.8 L7.536,6.08 L7.2,6.416 L6.864,6.752 L7.2,7.088 L7.48,7.368 L7.76,7.648 C7.872,7.76 7.872,7.816 7.928,7.816 C8.04,7.928 8.096,7.984 8.152,8.096 C8.208,8.152 8.208,8.208 8.152,8.32 L8.152,8.32 Z"/>
  </g>
</svg>
