<svg xmlns="http://www.w3.org/2000/svg" width="32" height="35" viewBox="0 0 32 35">
  <path fill="#FFF" d="M20.3476102,18.5567184 C23.6553917,16.9635747 25.957117,13.6509655 25.957117,9.79227586 C25.957117,4.39185631 21.4908019,0 16.0010842,0 C10.5091571,0 6.04288298,4.39185631 6.04288298,9.79227586 C6.04288298,13.6509655 8.3446083,16.9635747 11.654599,18.5567184 C4.9388436,20.4260805 0,26.4924655 0,33.6852069 C0,34.4111149 0.600990825,35 1.33919903,35 C2.07740723,35 2.67843895,34.4111149 2.67843895,33.6852069 C2.67843895,26.4603621 8.65381786,20.5802816 16.0010842,20.5802816 C23.3483913,20.5802816 29.3237294,26.4603621 29.3237294,33.6852069 C29.3237294,34.4111149 29.9225519,35 30.660801,35 C31.4012184,35 32,34.4111149 32,33.6852069 C32,26.4924655 27.0611973,20.4260805 20.3476102,18.5567184 Z M9,10.0020844 C9,6.14204007 12.3647392,3 16.5011168,3 C20.6352607,3 24,6.14204007 24,10.0020844 C24,13.8600442 20.6352186,17 16.5011168,17 C12.3646971,17 9,13.8600442 9,10.0020844 Z"/>
</svg>
