<svg xmlns="http://www.w3.org/2000/svg" width="24" height="24" viewBox="0 0 24 24">
  <g fill="#999">
    <path d="M12.9808929,23.9798304 L11.0123036,23.9798304 C10.3273393,23.9798304 9.7704375,23.42325 9.7704375,22.7390357 L9.63795536,20.7599464 C8.88270536,20.5562411 8.163375,20.2538304 7.48791964,19.8566786 L5.946,21.2049643 C5.55225,21.6050357 4.69604464,21.6390268 4.22769643,21.1716964 L2.83430357,19.7795357 C2.35135714,19.2946071 2.35135714,18.5080179 2.83358036,18.0249643 L4.19697321,16.4597946 C3.83779875,15.8022442 3.56477766,15.1011867 3.38464286,14.3739107 L1.20241071,14.2287321 C1.20166071,14.2287321 1.2009375,14.2290804 1.19946429,14.2290804 C0.565714286,14.2290804 0.0102589286,13.6728482 0.0102589286,12.9897321 L0.0102589286,11.0215982 C0.0102589286,10.3373839 0.567160714,9.78083036 1.25215179,9.78083036 L3.52001786,9.62357143 C3.72439548,8.96367062 4.00614943,8.33027494 4.35940179,7.73659821 L2.791875,5.94696429 C2.34182143,5.49934821 2.34182143,4.71200893 2.82626786,4.22820536 L4.21816071,2.83674107 C4.68798214,2.3679375 5.50467857,2.3679375 5.9745,2.83674107 L7.81939286,4.44136607 C8.38650595,4.13998213 8.985076,3.90195001 9.60428571,3.73157143 L9.77185714,1.20503571 C9.77041071,0.5705625 10.3273125,0.0139553571 11.0123036,0.0139553571 L12.9808661,0.0139553571 C13.6658304,0.0139553571 14.2227321,0.5705625 14.2227321,1.25475 L14.3961696,3.75975 C15.0050357,3.93417857 15.5904911,4.17334821 16.1481429,4.4743125 L18.0720804,2.79798214 C18.46725,2.39938393 19.3220089,2.36501786 19.7903839,2.83234821 L21.183,4.22453571 C21.4179107,4.45891071 21.5467232,4.77050893 21.5467232,5.10216964 C21.5467232,5.43385714 21.4171875,5.74577679 21.1822768,5.98020536 L19.5883929,7.80275893 C19.9219106,8.37521374 20.18927,8.98372775 20.3853214,9.61658036 L22.7995714,9.78259821 L22.8025179,9.78259821 C23.4347946,9.78259821 23.9901964,10.3384554 23.9901964,11.0215446 L23.9901964,12.9896786 C23.9901964,13.6738929 23.4333214,14.2304732 22.7483304,14.2304732 L20.5214464,14.3796696 C20.3472589,15.0806786 20.0889375,15.7535625 19.7486518,16.3898839 L21.2100804,18.0654643 C21.6586607,18.5119821 21.6586607,19.2989464 21.1756875,19.782375 L19.7822946,21.1745625 C19.3124732,21.6433661 18.4950536,21.6426429 18.0266786,21.1752857 L16.4774464,19.8211339 C15.8129464,20.2182857 15.1052946,20.5236161 14.3625,20.7335357 L14.2212589,22.7901429 C14.2227857,23.42325 13.6658571,23.9798304 12.9808929,23.9798304 L12.9808929,23.9798304 Z M11.2538036,22.4819732 L12.7415893,22.4819732 L12.9040714,20.0870625 C12.9273699,19.7535911 13.1684928,19.4757672 13.4953661,19.4057679 C14.4386518,19.2039107 15.3219375,18.8221071 16.1203661,18.2706696 C16.4028482,18.0754018 16.7819196,18.0973393 17.0402411,18.3229554 L18.8931964,19.9448036 L19.9455268,18.8930625 L18.2682054,16.9720982 C18.0523766,16.7247157 18.0229952,16.365545 18.19575,16.086375 C18.67875,15.3038036 19.0066071,14.4466339 19.1690625,13.5385982 C19.2298125,13.1995982 19.5137411,12.9458304 19.8569732,12.9231429 L22.4915089,12.7479643 L22.4915089,11.2610893 L19.7537946,11.0745804 C19.4281607,11.0522946 19.1537143,10.8215357 19.0768929,10.5044732 C18.8712589,9.65900893 18.5206875,8.86583036 18.0362679,8.14759821 C17.8459821,7.86602679 17.8693929,7.4915625 18.0933214,7.23554464 L19.9528661,5.11272321 L18.9005089,4.06138393 L16.7277589,5.95639286 C16.4774732,6.172875 16.1166964,6.20067857 15.8378839,6.02659821 C15.1243393,5.58045536 14.3471786,5.26339286 13.5260625,5.08419643 C13.2011518,5.01289286 12.9618482,4.7360625 12.9384375,4.40367857 L12.7400893,1.51178571 L11.2523036,1.51178571 L11.0635179,4.38064286 C11.0408304,4.71669643 10.7963839,4.99644643 10.4663571,5.06448214 C9.63648214,5.23486607 8.84758929,5.54753571 8.12089286,5.99367857 C7.84352679,6.16446429 7.48494643,6.13521429 7.23616071,5.92017857 L5.10728571,4.06615179 L4.05567857,5.11749107 L5.85814286,7.17302679 C6.08357143,7.43083929 6.10550893,7.80897321 5.91083036,8.09129464 C5.40369643,8.82707143 5.03997321,9.64108929 4.82922321,10.5103393 C4.75233763,10.8279462 4.47834916,11.0590003 4.15232143,11.0811696 L1.50902679,11.2629107 L1.50902679,12.7494375 L4.04911607,12.9165804 C4.39307143,12.9396161 4.67705357,13.1937589 4.73705357,13.5327589 C4.90317857,14.4649018 5.24421429,15.3440089 5.749875,16.145625 C5.92625893,16.4253482 5.89842857,16.7881339 5.68108929,17.0375357 L4.06451786,18.8908393 L5.116875,19.9421786 L6.92223214,18.3612857 C7.1790655,18.1369964 7.5548644,18.1141623 7.83696429,18.3057054 C8.645625,18.8553482 9.54064286,19.2316607 10.4963839,19.4239821 C10.8279107,19.4908929 11.0737768,19.7713929 11.0964375,20.1085446 L11.2537768,22.4819464 L11.2538036,22.4819732 Z"/>
    <path d="M12.0002679,16.6268839 C9.44625,16.6268839 7.36789286,14.5497589 7.36789286,11.9968929 C7.36789286,9.44402679 9.44622321,7.36725 12.0002679,7.36725 C14.5543125,7.36725 16.6326161,9.44397321 16.6326161,11.9968929 C16.6326161,14.5498125 14.5542857,16.6268839 12.0002679,16.6268839 Z M12.0002679,8.86510714 C10.2724554,8.86510714 8.86663393,10.2700982 8.86663393,11.9968929 C8.86663393,13.7240357 10.2724554,15.129 12.0002679,15.129 C13.7280804,15.129 15.133875,13.7240357 15.133875,11.9968929 C15.133875,10.2700982 13.7280536,8.86510714 12.0002679,8.86510714 L12.0002679,8.86510714 Z"/>
  </g>
</svg>
