<svg xmlns="http://www.w3.org/2000/svg" width="18" height="18" viewBox="0 0 18 18">
  <g fill="#323666">
    <path d="M9.73566964,17.9848728 L8.25922768,17.9848728 C7.74550446,17.9848728 7.32782813,17.5674375 7.32782813,17.0542768 L7.22846652,15.5699598 C6.66202902,15.4171808 6.12253125,15.1903728 5.61593973,14.8925089 L4.4595,15.9037232 C4.1641875,16.2037768 3.52203348,16.2292701 3.17077232,15.8787723 L2.12572768,14.8346518 C1.76351786,14.4709554 1.76351786,13.8810134 2.12518527,13.5187232 L3.14772991,12.344846 C2.87834907,11.8516832 2.67358325,11.32589 2.53848214,10.780433 L0.901808036,10.6715491 C0.901245536,10.6715491 0.900703125,10.6718103 0.899598214,10.6718103 C0.424285714,10.6718103 0.00769419643,10.2546362 0.00769419643,9.74229911 L0.00769419643,8.26619866 C0.00769419643,7.75303795 0.425370536,7.33562277 0.939113839,7.33562277 L2.64001339,7.21767857 C2.79329661,6.72275297 3.00461207,6.24770621 3.26955134,5.80244866 L2.09390625,4.46022321 C1.75636607,4.12451116 1.75636607,3.5340067 2.11970089,3.17115402 L3.16362054,2.1275558 C3.51598661,1.77595312 4.12850893,1.77595312 4.480875,2.1275558 L5.86454464,3.33102455 C6.28987946,3.10498659 6.738807,2.92646251 7.20321429,2.79867857 L7.32889286,0.903776786 C7.32780804,0.427921875 7.74548438,0.0104665179 8.25922768,0.0104665179 L9.73564955,0.0104665179 C10.2493728,0.0104665179 10.6670491,0.427921875 10.6670491,0.9410625 L10.7971272,2.8198125 C11.2537768,2.95063393 11.6928683,3.13001116 12.1111071,3.35573437 L13.5540603,2.09848661 C13.8504375,1.79953795 14.4915067,1.77376339 14.8427879,2.12426116 L15.88725,3.16840179 C16.063433,3.34418304 16.1600424,3.5778817 16.1600424,3.82662723 C16.1600424,4.07539286 16.0628906,4.30933259 15.8867076,4.48515402 L14.6912946,5.8520692 C14.9414329,6.2814103 15.1419525,6.73779581 15.2889911,7.21243527 L17.0996786,7.33694866 L17.1018884,7.33694866 C17.576096,7.33694866 17.9926473,7.75384152 17.9926473,8.26615848 L17.9926473,9.74225893 C17.9926473,10.2554196 17.5749911,10.6728549 17.0612478,10.6728549 L15.3910848,10.7847522 C15.2604442,11.3105089 15.0667031,11.8151719 14.8114888,12.2924129 L15.9075603,13.5490982 C16.2439955,13.8839866 16.2439955,14.4742098 15.8817656,14.8367812 L14.836721,15.8809219 C14.4843549,16.2325246 13.8712902,16.2319821 13.5200089,15.8814643 L12.3580848,14.8658504 C11.8597098,15.1637143 11.328971,15.3927121 10.771875,15.5501518 L10.6659442,17.0926071 C10.6670893,17.5674375 10.2493929,17.9848728 9.73566964,17.9848728 L9.73566964,17.9848728 Z M8.44035268,16.8614799 L9.55619196,16.8614799 L9.67805357,15.0652969 C9.69552742,14.8151933 9.87636962,14.6068254 10.1215246,14.5543259 C10.8289888,14.402933 11.4914531,14.1165804 12.0902746,13.7030022 C12.3021362,13.5565513 12.5864397,13.5730045 12.7801808,13.7422165 L14.1698973,14.9586027 L14.9591451,14.1697969 L13.701154,12.7290737 C13.5392825,12.5435368 13.5172464,12.2741588 13.6468125,12.0647812 C14.0090625,11.4778527 14.2549554,10.8349754 14.3767969,10.1539487 C14.4223594,9.89969866 14.6353058,9.70937277 14.8927299,9.69235714 L16.8686317,9.56097321 L16.8686317,8.44581696 L14.815346,8.30593527 C14.5711205,8.28922098 14.3652857,8.11615179 14.3076696,7.87835491 C14.1534442,7.2442567 13.8905156,6.64937277 13.5272009,6.11069866 C13.3844866,5.89952009 13.4020446,5.61867188 13.5699911,5.42665848 L14.9646496,3.83454241 L14.1753817,3.04603795 L12.5458192,4.46729464 C12.3581049,4.62965625 12.0875223,4.65050893 11.8784129,4.51994866 C11.3432545,4.18534152 10.7603839,3.94754464 10.1445469,3.81314732 C9.90086384,3.75966964 9.72138616,3.55204687 9.70382813,3.30275893 L9.55506696,1.13383929 L8.43922768,1.13383929 L8.29763839,3.28548214 C8.28062277,3.53752232 8.09728795,3.74733482 7.84976786,3.79836161 C7.22736161,3.92614955 6.63569196,4.16065179 6.09066964,4.49525893 C5.88264509,4.62334821 5.61370982,4.60141071 5.42712054,4.44013393 L3.83046429,3.04961384 L3.04175893,3.8381183 L4.39360714,5.37977009 C4.56267857,5.57312946 4.5791317,5.85672991 4.43312277,6.06847098 C4.05277232,6.62030357 3.77997991,7.23081696 3.62191741,7.88275446 C3.56425322,8.12095967 3.35876187,8.29425025 3.11424107,8.31087723 L1.13177009,8.44718304 L1.13177009,9.56207812 L3.03683705,9.68743527 C3.29480357,9.70471205 3.50779018,9.8953192 3.55279018,10.1495692 C3.67738393,10.8486763 3.93316071,11.5080067 4.31240625,12.1092187 C4.4446942,12.3190112 4.42382143,12.5911004 4.26081696,12.7781518 L3.04838839,14.1681295 L3.83765625,14.9566339 L5.19167411,13.7709643 C5.38429913,13.6027473 5.6661483,13.5856218 5.87772321,13.729279 C6.48421875,14.1415112 7.15548214,14.4237455 7.87228795,14.5679866 C8.12093304,14.6181696 8.30533259,14.8285446 8.32232813,15.0814085 L8.44033259,16.8614598 L8.44035268,16.8614799 Z"/>
    <path d="M9.00020089,12.4701629 C7.0846875,12.4701629 5.52591964,10.9123192 5.52591964,8.99766964 C5.52591964,7.08302009 7.08466741,5.5254375 9.00020089,5.5254375 C10.9157344,5.5254375 12.4744621,7.08297991 12.4744621,8.99766964 C12.4744621,10.9123594 10.9157143,12.4701629 9.00020089,12.4701629 Z M9.00020089,6.64883036 C7.70434152,6.64883036 6.64997545,7.70257366 6.64997545,8.99766964 C6.64997545,10.2930268 7.70434152,11.34675 9.00020089,11.34675 C10.2960603,11.34675 11.3504063,10.2930268 11.3504063,8.99766964 C11.3504063,7.70257366 10.2960402,6.64883036 9.00020089,6.64883036 L9.00020089,6.64883036 Z"/>
  </g>
</svg>
