<svg xmlns="http://www.w3.org/2000/svg" width="21" height="13" viewBox="0 0 21 13">
  <g fill="#898989">
    <path d="M10.5,0 C3.95408593,0 0,6.60047043 0,6.60047043 C0,6.60047043 4.5688711,13 10.5,13 C16.4311289,13 21,6.60047043 21,6.60047043 C21,6.60047043 17.050337,3.03110285e-15 10.5,3.03110285e-15 Z M16.7849621,8.84576613 C14.7504212,10.5406586 12.5920388,11.6065188 10.4336563,11.6065188 C8.2752738,11.6065188 6.11689132,10.6018145 4.08235046,8.84576613 C3.38352991,8.21673387 2.68470935,7.59206989 2.11415333,6.90188172 C1.9858888,6.77520161 1.92396799,6.65288978 1.79570345,6.52620968 C1.85762426,6.39952957 1.9858888,6.27721774 2.0478096,6.15053763 C2.55644482,5.46034946 3.18892165,4.77016129 3.88774221,4.14112903 C5.85593934,2.38508065 8.01432182,1.31922043 10.4292334,1.31922043 C12.8441449,1.31922043 15.0025274,2.38508065 16.9707245,4.14112903 C17.6695451,4.77016129 18.2401011,5.46034946 18.8106571,6.15053763 C18.8725779,6.27721774 19.0008425,6.39952957 19.0627633,6.52620968 C19.0008425,6.65288978 18.8725779,6.77520161 18.7443134,6.90188172 C18.1826032,7.53091398 17.5457035,8.22110215 16.7849621,8.84576613 Z"/>
    <path d="M10.2,2.95454545 C8.15985312,2.95454545 6.6,4.56019806 6.6,6.5 C6.6,8.50923556 8.23035496,10.0454545 10.2,10.0454545 C12.2401469,10.0454545 13.8,8.43980194 13.8,6.5 C13.8,4.56019806 12.169645,2.95454545 10.2,2.95454545 Z M10.2,8.8781017 C8.90452876,8.8781017 7.85140759,7.84527651 7.85140759,6.56509402 C7.85140759,5.28925114 8.9001224,4.25208635 10.2,4.25208635 C11.4954712,4.25208635 12.5485924,5.28491154 12.5485924,6.56509402 C12.5485924,7.78452209 11.4954712,8.8781017 10.2,8.8781017 Z"/>
  </g>
</svg>
