<svg xmlns="http://www.w3.org/2000/svg" width="29" height="29" viewBox="0 0 29 29">
  <g fill="none" fill-rule="evenodd" transform="translate(1 1)">
    <circle cx="13.5" cy="13.5" r="13.5" stroke="#526FDB" stroke-width=".9"/>
    <path fill="#526FDB" d="M13.0973684,7.05789474 C13.7644703,7.05789474 14.3052632,7.59868763 14.3052632,8.26578947 L14.3052632,19.5394737 C14.3052632,20.2065755 13.7644703,20.7473684 13.0973684,20.7473684 C12.4302666,20.7473684 11.8894737,20.2065755 11.8894737,19.5394737 L11.8894737,8.26578947 C11.8894737,7.59868763 12.4302666,7.05789474 13.0973684,7.05789474 Z"/>
    <path fill="#526FDB" d="M7.46052632,12.6947368 L18.7342105,12.6947368 C19.4013124,12.6947368 19.9421053,13.2355297 19.9421053,13.9026316 C19.9421053,14.5697334 19.4013124,15.1105263 18.7342105,15.1105263 L7.46052632,15.1105263 C6.79342447,15.1105263 6.25263158,14.5697334 6.25263158,13.9026316 C6.25263158,13.2355297 6.79342447,12.6947368 7.46052632,12.6947368 Z"/>
  </g>
</svg>
